<svg height="512" width="512" xmlns="http://www.w3.org/2000/svg"><path d="M64 36.687V16H48v24a8 8 0 002.343 5.657L68.686 64H51.313L37.657 50.343 26.343 61.657l16 16A8 8 0 0048 80h36.686L96 91.313V136h16V88a8 8 0 00-2.343-5.657zM202.343 50.343L188.687 64h-17.373l18.343-18.343A8 8 0 00192 40V16h-16v20.687l-45.657 45.656A8 8 0 00128 88v48h16V91.313L155.314 80H192a8 8 0 005.657-2.343l16-16z" fill="#774b01"/><path d="M320 336v72l24 24-8 56h24l16-64v-8l-16-16v-64zM240 344v16l8 128h24V344z" fill="#c37c02"/><path d="M448 264a32 32 0 0032 32h8v12a20 20 0 01-20 20 20 20 0 01-20-20z" fill="#fbd79a"/><path d="M168 184v24a24 24 0 0024 24h208a56 56 0 0156 56v16a56 56 0 01-56 56v32l32 32-16 64h-24l8-48-40-40v-40H216v128h-24l-16-128a56 56 0 01-56-56V184z" fill="#f69c03"/><path d="M110.833 232h18.334a24 24 0 0021.466-13.267L168 184v-48a16 16 0 00-16-16H88a16 16 0 00-16 16v48l17.367 34.733A24 24 0 00110.833 232zM72 136H56a32 32 0 01-32-32h16a32 32 0 0132 32zM168 136h16a32 32 0 0032-32h-16a32 32 0 00-32 32z" fill="#f8b035"/><rect fill="#774b01" height="16" rx="8" width="16" x="96" y="144"/><rect fill="#774b01" height="16" rx="8" width="16" x="128" y="144"/><path d="M96 216a24 24 0 0124-24 24 24 0 0124 24 16 16 0 01-16 16h-16a16 16 0 01-16-16z" fill="#774b01"/><g fill="#fbd79a"><path d="M192 256h16v16h-16zM232 272h16v16h-16zM272 248h16v16h-16zM312 264h16v16h-16zM352 248h16v16h-16zM392 264h16v16h-16zM368 296h16v16h-16z"/></g></svg>